<svg width="1200" height="1200" xmlns="http://www.w3.org/2000/svg"><path d="M-57 1439h1336V-37H-57Z" fill="#fff"/><path d="M789.796 410.694C764.208 219.009 699.452 59 599.99 59c-99.462 0-164.218 160.009-189.806 351.694C218.499 436.282 58.49 501.038 58.49 600.5c0 99.462 160.037 164.218 351.694 189.805C435.772 981.963 500.528 1142 599.99 1142c99.462 0 164.218-160.037 189.806-351.695 191.685-25.587 351.694-90.343 351.694-189.805S981.453 436.282 789.796 410.694ZM403.928 734.472C220.351 707.958 113.285 647.271 113.285 600.5c0-46.771 107.066-107.458 290.643-133.972-4.04 44.19-6.145 89.305-6.145 133.972s2.105 89.81 6.145 133.972ZM599.99 113.795c46.771 0 107.458 107.066 133.972 290.643-44.162-4.04-89.305-6.145-133.972-6.145s-89.81 2.105-133.972 6.145c26.514-183.577 87.201-290.643 133.972-290.643Zm196.062 620.677c-9.034 1.319-46.097 5.668-55.468 6.593-.926 9.399-5.303 46.435-6.594 55.469-26.514 183.577-87.201 290.643-133.972 290.643-46.771 0-107.458-107.066-133.972-290.643-1.291-9.034-5.668-46.097-6.593-55.469-4.265-43.516-6.846-90.259-6.846-140.565s2.581-97.049 6.846-140.594c43.516-4.264 90.259-6.846 140.565-6.846s97.049 2.582 140.566 6.846c9.399.926 46.434 5.303 55.468 6.594 183.577 26.514 290.671 87.229 290.671 133.972 0 46.743-107.094 107.486-290.671 134Z" fill="#141414"/></svg>